<svg xmlns="http://www.w3.org/2000/svg" xmlns:xlink="http://www.w3.org/1999/xlink" viewBox="0,0,256,256" width="30px" height="30px" fill-rule="nonzero"><g fill="#ffffff" fill-rule="nonzero" stroke="none" stroke-width="1" stroke-linecap="butt" stroke-linejoin="miter" stroke-miterlimit="10" stroke-dasharray="" stroke-dashoffset="0" font-family="none" font-weight="none" font-size="none" text-anchor="none" style="mix-blend-mode: normal"><g transform="scale(8.53333,8.53333)"><path d="M9,3c-0.552,0 -1,0.448 -1,1v17c0,0.552 0.448,1 1,1c0.29527,0 0.55322,-0.13417 0.73633,-0.33789l0.00586,0.00195l3.17773,-3.54492l3.46289,7.99805c0.319,0.738 1.18402,1.07128 1.91602,0.73828c0.722,-0.328 1.04184,-1.17739 0.71484,-1.90039l-3.57422,-7.91602l5.56055,-0.03906c0.552,0 1,-0.448 1,-1c0,-0.29527 -0.13417,-0.55322 -0.33789,-0.73633l0.00195,-0.00586l-11.94141,-11.94141c-0.0129,-0.01364 -0.02542,-0.02616 -0.03906,-0.03906l-0.05273,-0.05273l-0.01562,0.00781c-0.17126,-0.13741 -0.37874,-0.23242 -0.61523,-0.23242z"></path></g></g></svg>